<svg width="32" height="32" viewBox="0 0 32 32" fill="none" xmlns="http://www.w3.org/2000/svg">
<path d="M8 0.5H24C28.1421 0.5 31.5 3.85786 31.5 8V24C31.5 28.1421 28.1421 31.5 24 31.5H8C3.85786 31.5 0.5 28.1421 0.5 24V8C0.5 3.85786 3.85786 0.5 8 0.5Z" fill="white" stroke="#F2F2F2"/>
<path d="M20.6653 15.1312H17.2021V11.6682C17.2021 10.3328 15.1311 10.3328 15.1311 11.6682V15.1312H11.668C10.3329 15.1312 10.3329 17.2022 11.668 17.2022H15.1311V20.6652C15.1311 22.0005 17.2021 22.0005 17.2021 20.6652V17.2022H20.6653C22.0005 17.2022 22.0005 15.1312 20.6653 15.1312Z" fill="#D3D3D3"/>
</svg>
